<?xml version="1.0" encoding="UTF-8" standalone="no"?>
<svg xmlns="http://www.w3.org/2000/svg" xmlns:xlink="http://www.w3.org/1999/xlink" version="1.1" width="500" height="500" viewBox="0 0 500 500" xml:space="preserve">
  <desc>Created with Fabric.js 3.6.3</desc>
  <defs></defs>
  <g transform="matrix(1 0 0 1 262.355 298.702)" style="">
    <path fill="#ffffff" opacity="1" d="M-187.45 15.71L-173.40-16.79L-169.00-16.79L-155.00 15.71L-158.95 15.71L-163.60 4.76L-179.05 4.76L-183.60 15.71L-187.45 15.71ZM-170.95-12.94L-171.65-12.94L-177.75 1.66L-164.90 1.66L-170.95-12.94Z"></path>
    <path fill="#ffffff" opacity="1" d="M-143.15-7.59L-143.15-16.79L-121.45-16.79L-121.45 15.71L-125.20 15.71L-125.20-13.59L-139.50-13.59L-139.50-5.54Q-139.50 5.31-142.25 11.11L-142.25 11.11Q-144.95 16.11-149.70 16.11L-149.70 16.11Q-151.75 16.11-153.25 15.61L-153.25 15.61L-152.55 12.36Q-151.50 12.71-150.00 12.71L-150.00 12.71Q-147.10 12.71-145.50 9.36L-145.50 9.36Q-143.15 4.41-143.15-7.59L-143.15-7.59Z"></path>
    <path fill="#ffffff" opacity="1" d="M-106.20-13.59L-116.20-13.59L-116.20-16.79L-92.45-16.79L-92.45-13.59L-102.45-13.59L-102.45 15.71L-106.20 15.71L-106.20-13.59Z"></path>
    <path fill="#ffffff" opacity="1" d="M-91.70 15.71L-77.65-16.79L-73.25-16.79L-59.25 15.71L-63.20 15.71L-67.85 4.76L-83.30 4.76L-87.85 15.71L-91.70 15.71ZM-75.20-12.94L-75.90-12.94L-82.00 1.66L-69.15 1.66L-75.20-12.94Z"></path>
    <path fill="#ffffff" opacity="1" d="M-54.75 15.71L-54.75-16.79L-51.05-16.79L-51.05 10.46L-50.75 10.46L-30.00-16.79L-26.30-16.79L-26.30 15.71L-30.00 15.71L-30.00-11.04L-30.30-11.04L-50.80 15.71L-54.75 15.71ZM-47.95-24.74L-47.95-24.74L-45.55-25.74Q-44.05-22.84-40.50-22.84Q-36.95-22.84-35.30-25.74L-35.30-25.74L-32.95-24.74Q-34.85-19.79-40.50-19.79L-40.50-19.79Q-43.10-19.79-45.10-21.14Q-47.10-22.49-47.95-24.74Z"></path>
    <path fill="#ffffff" opacity="1" d="M-5.05 15.71L-5.05-16.79L0.15-16.79L10.70-1.19L21.30-16.79L26.45-16.79L26.45 15.71L22.75 15.71L22.75-2.74L22.85-12.69L22.40-12.69L11.25 3.61L9.90 3.61L-1.05-12.69L-1.45-12.69L-1.40-2.74L-1.40 15.71L-5.05 15.71Z"></path>
    <path fill="#ffffff" opacity="1" d="M45.35 14.26L30.70-16.79L34.95-16.79L47.05 9.66L47.40 9.66L57.65-16.79L61.60-16.79L49.65 13.46Q47.80 18.16 45.70 20.23Q43.60 22.31 40.40 22.31L40.40 22.31Q38.10 22.31 36.25 21.36L36.25 21.36L37.20 18.31Q38.50 18.81 40.05 18.81L40.05 18.81Q41.90 18.81 43.18 17.73Q44.45 16.66 45.35 14.26L45.35 14.26Z"></path>
    <path fill="#ffffff" opacity="1" d="M69.20-7.59L69.20-16.79L90.90-16.79L90.90 15.71L87.15 15.71L87.15-13.59L72.85-13.59L72.85-5.54Q72.85 5.31 70.10 11.11L70.10 11.11Q67.40 16.11 62.65 16.11L62.65 16.11Q60.60 16.11 59.10 15.61L59.10 15.61L59.80 12.36Q60.85 12.71 62.35 12.71L62.35 12.71Q65.25 12.71 66.85 9.36L66.85 9.36Q69.20 4.41 69.20-7.59L69.20-7.59Z"></path>
    <path fill="#ffffff" opacity="1" d="M97.40 15.71L97.40-16.79L101.10-16.79L101.10 10.46L101.40 10.46L122.15-16.79L125.85-16.79L125.85 15.71L122.15 15.71L122.15-11.04L121.85-11.04L101.35 15.71L97.40 15.71Z"></path>
    <path fill="#ffffff" opacity="1" d="M155.10-2.89L155.10-16.79L158.85-16.79L158.85 15.71L155.10 15.71L155.10 0.31L136.10 0.31L136.10 15.71L132.35 15.71L132.35-16.79L136.10-16.79L136.10-2.89L155.10-2.89Z"></path>
    <path fill="#ffffff" opacity="1" d="M186.45 15.71L165.35 15.71L165.35-16.79L185.70-16.79L185.70-13.59L169.10-13.59L169.10-2.84L184.05-2.84L184.05 0.36L169.10 0.36L169.10 12.46L186.45 12.46L186.45 15.71Z"></path>
  </g>
  <g transform="matrix(2.422240523595067 0 0 2.005936695948522 264 178.46625)">
    <path style="stroke: none; stroke-width: 0; stroke-dasharray: none; stroke-linecap: butt; stroke-dashoffset: 0; stroke-linejoin: miter; stroke-miterlimit: 4; fill: rgb(255,255,255); fill-rule: nonzero; opacity: 1;" transform=" translate(-49.999660000000006, -50.000085)" d="m 5 72.699 l 14.371 -19.609 l 0.91797 0.92969 l 7.6914 -10.039 l 5.3086 6.4805 l 2.1992 -1.8711 l 0.55078 -3.6914 l 10.531 -15.977 l 2.7383 -1.6211 l 5.5898 9.1094 l 6.1328 2.1602 l 3.7578 7.4102 l 5.0312 0.92969 l 0.73047 4.3281 l 5.5 6.793 l -4.2109 -6.793 l 5.2188 -5.5586 l 7.8711 14.672 l 10.07 12.348 l -11.352 -10.34 l -7.0469 -10.348 l 2.2891 7.4102 l 2.5586 4.168 l -7.3203 -2.7812 l -5.8594 -6.3281 l -2.8398 -5.25 l 0.73047 5.7109 l 4.4883 6.7969 l -6.5977 -6.0273 l -5.582 -14.199 l -2.1992 -1.5508 l 0.64062 4.7891 l 3.1094 8.6484 l -6.5898 -9.8867 l 0.37891 -3.0898 l -5.7773 -7.1016 l -1.0117 2.1602 l 0.46094 10.969 l 4.5781 9.2617 l -8.418 -10.5 l 1.4609 8.5 l 9.6172 15.598 l -14.648 -13.75 l -2.4805 -8.4883 l 0.28125 5.3984 l -2.1094 2.4727 l 1.0977 4.6367 l 5.0391 5.5625 l -7.5977 -5.7188 l -7.1406 -10.832 l -4.6719 7.8984 l -1.7383 8.8008 l -7.7891 0.92969 z" stroke-linecap="round"></path>
  </g>
</svg>